OpenSim_Sub03_EMGBaseline_GRF.mot
version=1
nRows=64
nColumns=19
inDegrees=no
endheader
time	lFx	lFy	lFz	lCOPx	lCOPy	lCOPz	rFx	rFy	rFz	rCOPx	rCOPy	rCOPz	lMx	lMy	lMz	rMx	rMy	rMz
0	13.49038616	391.88853024	32.39085130	0.63366865	0	-0.70635867	-3.64999054	375.14827840	-31.75974432	0.67271591	0	-0.36444242	0	-4.04679802	0	0	2.35834650	0
0.01000000	13.72215202	391.62754473	32.23376176	0.63357589	0	-0.70634849	-3.81475311	374.91445107	-31.64724656	0.67236869	0	-0.36440619	0	-4.16716830	0	0	2.51861786	0
0.02000000	13.84965119	391.50692187	32.12741098	0.63334775	0	-0.70629646	-3.91393379	374.61573963	-31.55791232	0.67213090	0	-0.36440977	0	-4.22174189	0	0	2.61477996	0.00000000
0.03000000	13.88643680	391.49323167	32.05303362	0.63304213	0	-0.70620307	-3.99727915	374.24393886	-31.51523949	0.67200178	0	-0.36442599	0	-4.21921996	0	0	2.64317716	0
0.04000000	13.90380877	391.56674498	32.00750825	0.63273059	0	-0.70607936	-4.10506140	373.85005616	-31.53036558	0.67194042	0	-0.36444453	0	-4.19502206	0	0	2.63040364	0
0.05000000	13.97550974	391.64156714	31.98006518	0.63238459	0	-0.70593144	-4.18406143	373.54460884	-31.55903007	0.67193428	0	-0.36446462	0	-4.17815920	0	0	2.59570248	0
0.06000000	14.13789473	391.66022138	31.95851194	0.63194184	0	-0.70575455	-4.14993594	373.37352336	-31.55079984	0.67193432	0	-0.36450452	0	-4.16799372	0	0	2.56392264	0
0.07000000	14.35194824	391.63467952	31.92508118	0.63148448	0	-0.70558319	-3.99152697	373.33983581	-31.49671379	0.67184289	0	-0.36457786	0	-4.15401571	0	0	2.55141184	0
0.08000000	14.57721779	391.64186710	31.89296531	0.63105961	0	-0.70542091	-3.77961892	373.35099278	-31.41455215	0.67171550	0	-0.36467848	0	-4.14226914	0	0	2.54992791	0.00000000
0.09000000	14.79247024	391.75543081	31.87276953	0.63066514	0	-0.70526185	-3.61083835	373.34265110	-31.32150825	0.67163742	0	-0.36479469	0	-4.12890271	0	0	2.55407611	0
0.10000000	14.98018818	391.96331557	31.86757029	0.63019899	0	-0.70509617	-3.53712108	373.29230922	-31.25082650	0.67159459	0	-0.36490666	0	-4.09457428	0	0	2.55583426	0
0.11000000	15.16655006	392.19447736	31.87421605	0.62962978	0	-0.70491973	-3.52595154	373.16980848	-31.20815694	0.67160085	0	-0.36500766	0	-4.03883135	0	0	2.53785009	0
0.12000000	15.38913041	392.40248155	31.88958367	0.62901525	0	-0.70471596	-3.49412540	373.04690771	-31.18157884	0.67166454	0	-0.36508467	0	-3.97085970	0	0	2.49741768	-0.00000000
0.13000000	15.66386307	392.59069894	31.90136463	0.62840154	0	-0.70449931	-3.38823607	373.02181466	-31.17328190	0.67165227	0	-0.36511484	0	-3.91418143	0	0	2.46328321	-0.00000000
0.14000000	15.95565706	392.76377815	31.90519973	0.62788214	0	-0.70429897	-3.22450802	373.15331992	-31.19064953	0.67156682	0	-0.36511426	0	-3.86613351	0	0	2.46403122	0.00000000
0.15000000	16.19539219	392.88679275	31.89414350	0.62746196	0	-0.70412497	-3.08974294	373.38487531	-31.23671431	0.67148774	0	-0.36510597	0	-3.82434620	0	0	2.49225439	0
0.16000000	16.33842674	392.87613559	31.86478665	0.62710261	0	-0.70398103	-3.07243785	373.55596213	-31.31013482	0.67149951	0	-0.36508384	0	-3.78491202	0	0	2.51355422	0
0.17000000	16.36259391	392.68844274	31.84597912	0.62679168	0	-0.70384832	-3.15909272	373.58531688	-31.38038066	0.67165752	0	-0.36503510	0	-3.74629558	0	0	2.51196601	0
0.18000000	16.27983891	392.32739356	31.86787270	0.62655647	0	-0.70369643	-3.27723625	373.49604434	-31.42416457	0.67186502	0	-0.36501521	0	-3.72014458	0	0	2.50157516	0.00000000
0.19000000	16.14616854	391.84646135	31.90905912	0.62643951	0	-0.70355061	-3.37729982	373.37533899	-31.44775821	0.67201560	0	-0.36505442	0	-3.71491287	0	0	2.50679885	0.00000000
0.20000000	16.01258143	391.35145728	31.94770415	0.62640396	0	-0.70344267	-3.45775098	373.31607302	-31.45930848	0.67212718	0	-0.36508702	0	-3.72933005	0	0	2.52955156	0
0.21000000	15.89488880	391.03018759	31.97945342	0.62645319	0	-0.70336241	-3.54515200	373.34391525	-31.48484374	0.67229683	0	-0.36506247	0	-3.74933343	0	0	2.54915617	0.00000000
0.22000000	15.77873391	391.07260515	32.01106621	0.62654991	0	-0.70331846	-3.67079421	373.42186350	-31.52520818	0.67252400	0	-0.36497811	0	-3.76588950	0	0	2.54244428	0.00000000
0.23000000	15.62418786	391.56954690	32.06097214	0.62673743	0	-0.70333872	-3.86154911	373.42066155	-31.56595232	0.67279112	0	-0.36488020	0	-3.79421300	0	0	2.51143923	0.00000000
0.24000000	15.35996942	392.37624338	32.15011236	0.62700004	0	-0.70341120	-4.13046009	373.28092921	-31.60909013	0.67307395	0	-0.36478406	0	-3.83100301	0	0	2.47408058	0
0.25000000	14.99964937	393.26612431	32.28217895	0.62726524	0	-0.70352347	-4.46456582	373.06423022	-31.65519813	0.67338482	0	-0.36471436	0	-3.85587768	0	0	2.45262774	0
0.26000000	14.63173024	394.08920524	32.43729323	0.62750680	0	-0.70366168	-4.82124088	372.81757250	-31.71573512	0.67362361	0	-0.36472930	0	-3.86530412	0	0	2.45002839	-0.00000000
0.27000000	14.32516407	394.79706896	32.58778801	0.62772048	0	-0.70381278	-5.16111759	372.66202743	-31.79023790	0.67374989	0	-0.36479046	0	-3.86611571	0	0	2.46204489	0
0.28000000	14.15669789	395.45199648	32.72728090	0.62789832	0	-0.70394011	-5.43039054	372.60349566	-31.86950317	0.67388704	0	-0.36483345	0	-3.85633576	0	0	2.48222510	-0.00000000
0.29000000	14.15476865	396.12236262	32.85150634	0.62798613	0	-0.70402537	-5.52142964	372.53580678	-31.92999828	0.67412595	0	-0.36481313	0	-3.84759107	0	0	2.49858119	-0.00000000
0.30000000	14.27750700	396.83272348	32.95032571	0.62800096	0	-0.70407428	-5.39583094	372.37594912	-31.93172176	0.67450395	0	-0.36471901	0	-3.85339647	0	0	2.49583576	0
0.31000000	14.45015117	397.53031997	33.02693626	0.62802774	0	-0.70411803	-5.13684697	372.05242921	-31.86699203	0.67497266	0	-0.36461368	0	-3.87112169	0	0	2.46736910	0
0.32000000	14.61934501	398.18954185	33.10412566	0.62813166	0	-0.70418939	-4.88724152	371.56680646	-31.76130862	0.67554180	0	-0.36452318	0	-3.88705282	0	0	2.41395708	0.00000000
0.33000000	14.77252955	398.73497853	33.20106512	0.62831013	0	-0.70425947	-4.81011664	370.96071590	-31.65060605	0.67615900	0	-0.36445539	0	-3.89509971	0	0	2.35925964	0
0.34000000	14.86283994	399.05421406	33.29700361	0.62851179	0	-0.70432425	-4.98619492	370.28744044	-31.57416405	0.67678537	0	-0.36442245	0	-3.91052609	0	0	2.32063961	-0.00000000
0.35000000	14.87464569	399.15397445	33.36138296	0.62871774	0	-0.70439851	-5.33246207	369.60592674	-31.55868943	0.67736584	0	-0.36440595	0	-3.92654189	0	0	2.29093994	0
0.36000000	14.83590948	399.16187884	33.39347549	0.62892558	0	-0.70447416	-5.70872524	369.02373529	-31.61844977	0.67784543	0	-0.36437685	0	-3.92837922	0	0	2.26382179	-0.00000000
0.37000000	14.77051042	399.16731190	33.40857797	0.62918435	0	-0.70454561	-6.01884468	368.62783595	-31.73407190	0.67827292	0	-0.36431179	0	-3.92097500	0	0	2.24849087	0.00000000
0.38000000	14.71475355	399.23690033	33.42288001	0.62945232	0	-0.70459209	-6.21415411	368.37362251	-31.86798519	0.67870903	0	-0.36422630	0	-3.92477521	0	0	2.25248928	0
0.39000000	14.68397135	399.47757029	33.44933236	0.62955119	0	-0.70458567	-6.30722166	368.20243137	-31.98152306	0.67916306	0	-0.36416588	0	-3.93846221	0	0	2.26641034	0
0.40000000	14.67391797	399.93716341	33.48325814	0.62949943	0	-0.70457085	-6.32388401	368.09299176	-32.03470270	0.67965630	0	-0.36412138	0	-3.95130827	0	0	2.27389419	0
0.41000000	14.64774582	400.56715731	33.52610740	0.62949186	0	-0.70458889	-6.26843976	368.04585729	-32.01768052	0.68021105	0	-0.36407811	0	-3.96711612	0	0	2.26536286	-0.00000000
0.42000000	14.52547636	401.24337512	33.59284792	0.62960889	0	-0.70465749	-6.16331812	368.06143606	-31.95913710	0.68072849	0	-0.36401306	0	-3.98712172	0	0	2.26726798	0
0.43000000	14.30397585	401.81687673	33.66520064	0.62985041	0	-0.70477444	-6.10440343	368.11505273	-31.91185373	0.68107716	0	-0.36388596	0	-4.01549784	0	0	2.29658497	0.00000000
0.44000000	14.06719918	402.13157188	33.74265557	0.63004310	0	-0.70489306	-6.18153160	368.16183998	-31.92268735	0.68130225	0	-0.36369230	0	-4.04713098	0	0	2.33956625	0
0.45000000	13.88958055	402.23500806	33.82157352	0.63011487	0	-0.70497978	-6.47619129	368.13463798	-32.02199032	0.68147124	0	-0.36348419	0	-4.07839030	0	0	2.39394022	0
0.46000000	13.79645598	402.27753614	33.87339716	0.63023209	0	-0.70505187	-6.97677903	368.00205015	-32.19799758	0.68162473	0	-0.36328711	0	-4.10267907	0	0	2.44132041	0
0.47000000	13.77028069	402.35959231	33.86856161	0.63043582	0	-0.70514414	-7.52634394	367.84115486	-32.40168165	0.68184280	0	-0.36305725	0	-4.11246231	0	0	2.44827205	0.00000000
0.48000000	13.77005258	402.50329898	33.84181179	0.63059277	0	-0.70522010	-7.96264335	367.75100767	-32.57982119	0.68219385	0	-0.36283289	0	-4.10577867	0	0	2.41724163	0
0.49000000	13.76823556	402.62085431	33.82402427	0.63068665	0	-0.70522923	-8.20828412	367.74438928	-32.70247024	0.68262376	0	-0.36270058	0	-4.09264060	0	0	2.37871846	0.00000000
0.50000000	13.77086738	402.62843243	33.80470845	0.63073188	0	-0.70517281	-8.26925450	367.81223135	-32.77484306	0.68299522	0	-0.36265556	0	-4.08110126	0	0	2.36240542	0
0.51000000	13.78956843	402.58410249	33.78457770	0.63072148	0	-0.70508262	-8.23793356	367.92292977	-32.80814296	0.68322921	0	-0.36261926	0	-4.06780459	0	0	2.36893507	0
0.52000000	13.84829230	402.52089410	33.77338477	0.63079959	0	-0.70499420	-8.17886222	367.99524951	-32.81632155	0.68330296	0	-0.36257365	0	-4.05519187	0	0	2.38251081	0.00000000
0.53000000	13.93562865	402.40094994	33.74082870	0.63093988	0	-0.70496475	-8.05107312	367.98990542	-32.80175850	0.68325432	0	-0.36252033	0	-4.03978868	0	0	2.39551905	-0.00000000
0.54000000	14.02296466	402.23301626	33.68957978	0.63097984	0	-0.70500319	-7.79858575	367.93642521	-32.76814344	0.68317398	0	-0.36245876	0	-4.01401040	0	0	2.41586557	0
0.55000000	14.09662334	401.99029246	33.66703143	0.63097844	0	-0.70504163	-7.44006605	367.81004662	-32.73424795	0.68310983	0	-0.36241235	0	-3.99574285	0	0	2.44229091	-0.00000000
0.56000000	14.15162377	401.70205264	33.66534321	0.63104333	0	-0.70506654	-7.05789188	367.54534665	-32.70808609	0.68296413	0	-0.36241964	0	-3.98906830	0	0	2.46908994	-0.00000000
0.57000000	14.15967751	401.41632727	33.63665063	0.63123627	0	-0.70511948	-6.73392018	367.19644803	-32.68468029	0.68282767	0	-0.36247295	0	-3.98041698	0	0	2.48622938	0
0.58000000	14.13298169	401.14680445	33.56906228	0.63148492	0	-0.70518270	-6.53365471	366.85381193	-32.65206684	0.68275008	0	-0.36250985	0	-3.96334503	0	0	2.49738431	0.00000000
0.59000000	14.10041120	400.88355473	33.47635904	0.63169308	0	-0.70522330	-6.46224962	366.51021121	-32.61731193	0.68265357	0	-0.36249946	0	-3.94839914	0	0	2.51419188	-0.00000000
0.60000000	14.09097006	400.64269945	33.39803433	0.63182262	0	-0.70523059	-6.46412268	366.17731575	-32.59843261	0.68252930	0	-0.36244951	0	-3.94211129	0	0	2.53345540	0.00000000
0.61000000	14.10921818	400.47924691	33.35979069	0.63185662	0	-0.70521821	-6.48025597	365.86025313	-32.60301142	0.68240031	0	-0.36238555	0	-3.94134135	0	0	2.53851799	0
0.62000000	14.17107370	400.42835174	33.34387420	0.63177885	0	-0.70520549	-6.48214538	365.59801673	-32.64861173	0.68233391	0	-0.36234794	0	-3.94850222	0	0	2.52766826	-0.00000000
0.63000000	14.27230462	400.55335493	33.33679975	0.63167201	0	-0.70520665	-6.48148331	365.45964038	-32.71864973	0.68242559	0	-0.36234428	0	-3.96162777	0	0	2.50911483	0
